<mxfile host="Electron" agent="Mozilla/5.0 (Windows NT 10.0; Win64; x64) AppleWebKit/537.36 (KHTML, like Gecko) draw.io/26.0.15 Chrome/132.0.6834.196 Electron/34.2.0 Safari/537.36" version="26.0.15">
  <diagram name="第 1 页" id="PsEfMcwvs14MLJn-iuYD">
    <mxGraphModel dx="600" dy="355" grid="0" gridSize="10" guides="1" tooltips="1" connect="1" arrows="1" fold="1" page="0" pageScale="1" pageWidth="827" pageHeight="1169" math="0" shadow="0">
      <root>
        <mxCell id="0" />
        <mxCell id="1" parent="0" />
        <mxCell id="mWP3OCs5p7t-VtueKWId-3" style="edgeStyle=orthogonalEdgeStyle;rounded=0;orthogonalLoop=1;jettySize=auto;html=1;exitX=1;exitY=0.25;exitDx=0;exitDy=0;entryX=0;entryY=0.25;entryDx=0;entryDy=0;" edge="1" parent="1" source="mWP3OCs5p7t-VtueKWId-1" target="mWP3OCs5p7t-VtueKWId-2">
          <mxGeometry relative="1" as="geometry" />
        </mxCell>
        <mxCell id="mWP3OCs5p7t-VtueKWId-1" value="判题模块" style="whiteSpace=wrap;html=1;aspect=fixed;" vertex="1" parent="1">
          <mxGeometry x="200" y="160" width="80" height="80" as="geometry" />
        </mxCell>
        <mxCell id="mWP3OCs5p7t-VtueKWId-6" style="edgeStyle=orthogonalEdgeStyle;rounded=0;orthogonalLoop=1;jettySize=auto;html=1;exitX=0;exitY=0.75;exitDx=0;exitDy=0;entryX=1;entryY=0.75;entryDx=0;entryDy=0;" edge="1" parent="1" source="mWP3OCs5p7t-VtueKWId-2" target="mWP3OCs5p7t-VtueKWId-1">
          <mxGeometry relative="1" as="geometry" />
        </mxCell>
        <mxCell id="mWP3OCs5p7t-VtueKWId-2" value="代码沙箱" style="rounded=1;whiteSpace=wrap;html=1;" vertex="1" parent="1">
          <mxGeometry x="440" y="160" width="120" height="80" as="geometry" />
        </mxCell>
        <mxCell id="mWP3OCs5p7t-VtueKWId-4" value="1、发送代码到代码沙箱" style="text;html=1;align=center;verticalAlign=middle;resizable=0;points=[];autosize=1;strokeColor=none;fillColor=none;" vertex="1" parent="1">
          <mxGeometry x="280" y="148" width="150" height="30" as="geometry" />
        </mxCell>
        <mxCell id="mWP3OCs5p7t-VtueKWId-5" value="2、编译、执行代码，&lt;div&gt;得到一组执行结果&lt;/div&gt;" style="text;html=1;align=center;verticalAlign=middle;resizable=0;points=[];autosize=1;strokeColor=none;fillColor=none;" vertex="1" parent="1">
          <mxGeometry x="430" y="120" width="140" height="40" as="geometry" />
        </mxCell>
        <mxCell id="mWP3OCs5p7t-VtueKWId-7" value="3、返回执行结果&lt;div&gt;（一组程序输出、执行信息、执行状态、执行环境等信息）&lt;/div&gt;" style="text;html=1;align=center;verticalAlign=middle;resizable=0;points=[];autosize=1;strokeColor=none;fillColor=none;" vertex="1" parent="1">
          <mxGeometry x="180" y="220" width="340" height="40" as="geometry" />
        </mxCell>
        <mxCell id="mWP3OCs5p7t-VtueKWId-8" value="4、根据规则来判题&lt;div&gt;（比如对比输入输出是否一致）&lt;/div&gt;" style="text;html=1;align=center;verticalAlign=middle;resizable=0;points=[];autosize=1;strokeColor=none;fillColor=none;" vertex="1" parent="1">
          <mxGeometry x="120" y="120" width="190" height="40" as="geometry" />
        </mxCell>
      </root>
    </mxGraphModel>
  </diagram>
</mxfile>
